<svg xmlns="http://www.w3.org/2000/svg" version="1.1" xmlns:xlink="http://www.w3.org/1999/xlink" width="1500" height="193" viewBox="0 0 1500 193"><svg xml:space="preserve" width="1500" height="193" data-version="2" data-id="lg_pyw1d8ducZoSlPFfxN" viewBox="0 0 573 193" x="0" y="0"><rect width="100%" height="100%" fill="transparent"></rect><rect width="153.065" height="153.065" x="-76.533" y="-76.533" fill="#293040" stroke="#ff5100" rx="0" ry="0" transform="translate(82.436 79.097)"></rect><path fill="#fff" d="M82.436 47.41c15.964 0 28.904 14.187 28.904 31.687l.359 63.88h29.009v-63.88c0-35.28-26.09-63.88-58.272-63.88s-58.272 28.6-58.272 63.88v63.88h29.401l-.033-63.88c0-17.5 12.94-31.686 28.904-31.686"></path><path fill="#293040" d="M208.796 134.935h-33v-105h33q17.4 0 30.3 6.6 12.9 6.6 20.1 18.38 7.2 11.77 7.2 27.52t-7.2 27.53q-7.2 11.77-20.1 18.37-12.9 6.6-30.3 6.6m0-101.4h-22.8v97.8h22.8q21.75 0 33.97-12.9 12.23-12.9 12.23-36t-12.23-36q-12.22-12.9-33.97-12.9m105.3 101.4h-46.2v-105h45.75v7.35l-26.25-3.45q-6.9-.9-9.3-.9v45.75q1.95 0 9.3-.45l24.6-1.5v6.9l-24.6-1.5q-7.35-.45-9.3-.45v50.25q2.7 0 9.45-.9l26.55-3.45z"></path><path fill="#293040" d="m306.446 131.635.9-9h.9q5.85 5.1 13.2 7.95 7.35 2.85 14.55 2.85 10.2 0 16.5-5.62 6.3-5.63 6.3-15.08 0-5.25-2.33-9.75-2.32-4.5-7.65-9.15-5.32-4.65-14.62-10.05-6.45-3.75-12.3-7.87-5.85-4.13-9.6-9.6-3.75-5.48-3.75-13.13 0-11.4 8.25-18.37 8.25-6.98 21.75-6.98 6 0 12.9 1.28 6.9 1.27 10.65 3.22l-.75 8.4h-.9q-8.55-9.3-21.9-9.3-9.6 0-15.45 4.88-5.85 4.87-5.85 13.12 0 6.15 3.22 10.58 3.23 4.42 8.33 7.95 5.1 3.52 10.95 6.82 6.75 3.9 13.12 8.25 6.38 4.35 10.5 10.43 4.13 6.07 4.13 15.22 0 8.4-3.9 14.78-3.9 6.37-11.03 9.97-7.12 3.6-16.57 3.6-6 0-14.1-1.5t-15.45-3.9"></path><path fill="#293040" d="M377.246 134.935h-10.2v-105h10.2zm89.1-49.8h-27.75v-3.6h37.95v40.8q-6.9 6.9-16.88 10.8-9.97 3.9-22.27 3.9-12.6 0-23.25-4.12-10.65-4.13-18.6-11.55-7.95-7.43-12.38-17.33-4.42-9.9-4.42-21.6 0-11.7 4.42-21.6 4.43-9.9 12.38-17.32 7.95-7.43 18.6-11.55 10.65-4.13 23.25-4.13 5.4 0 11.77.75 6.38.75 12.23 2.03 5.85 1.27 9.9 3.07l-.75 8.4h-.9q-6-5.25-14.4-7.95t-17.85-2.7q-14.1 0-24.75 6.38-10.65 6.37-16.58 17.85-5.92 11.47-5.92 26.77 0 15.3 5.92 26.78 5.93 11.47 16.58 17.85 10.65 6.37 24.75 6.37 8.7 0 16.12-2.4 7.43-2.4 12.83-6.9zm22.65 49.8h-10.2l3.75-107.1h1.8l75.45 91.2h.9l-3.3-89.1h10.2l-3.75 107.1h-1.8l-75.45-91.2h-.9zm-400.93 42.93-1-.11.02-.29h4.63q2.57 0 4.12 1.5 1.54 1.49 1.54 4.85 0 3.32-1.08 4.98-.95 1.44-2.96 1.82-.9.15-2.09.15h-.36l-3.82.02.02-.26.98-.14q.19-.02.23-.24v-12.01q-.04-.25-.23-.27m3.56-.11h-2.04v12.73h1.56q.91 0 1.55-.11.64-.1 1.33-.49.69-.39 1.09-1.07.97-1.62.97-4.91 0-3.42-1.35-4.84-1.23-1.31-3.11-1.31m11.44.11-1.01-.11.02-.29h8.13l-.02.06.25 2.68-.38.15-.31-2.51h-5.16v6.14h4.54q.09.02.17-.05.07-.06.07-.18l.08-1.31.3-.04v3.25q-.02 0-.28.02l-.08-1.31h-4.8v6.02h5.68l.36-3.04.36.1-.29 3.32h-4.82l-3.82.02.02-.26.99-.14q.19-.02.22-.24v-12.03q-.03-.23-.22-.25m15.96 12.54q1.4 0 2.47-.82 1.06-.83 1.06-2.52 0-.76-.37-1.3t-.98-.84q-.61-.29-1.33-.51-.72-.22-1.44-.47-.73-.24-1.33-.59-.61-.34-.98-.97-.37-.62-.37-1.5 0-1.52 1.04-2.49 1.05-.96 2.8-.96 1.74 0 3.34.39l.21 2.38-.36.15-.19-1.5q-1.41-1.04-2.64-1.04-1.24 0-2.07.75-.84.75-.84 2.25 0 .87.7 1.38.71.52 1.7.8 1 .29 2 .65 1 .36 1.7 1.21.7.86.7 2.23 0 1.84-1.31 2.77-1.31.93-3.46.93-2.14 0-3.72-1.16l.02-2.01.36-.1.04 1.09q.51.72 1.4 1.26.9.54 1.85.54m13.3.36-3.82.02.02-.26.98-.14q.19-.02.23-.24h.02v-12.01h-.02q-.04-.25-.23-.27l-.98-.09-.02-.29 3.82-.02.01.29-1.29.11v12.54l1.29.08zm11.38-5.47 3.42-.02q0 .02.02.29l-.76.09v4.71q-.33.12-1.72.3-1.4.18-2.27.18-.88 0-1.52-.12-.65-.13-1.37-.53-.72-.4-1.23-1.05-.5-.66-.84-1.8-.35-1.14-.35-2.66 0-3.36 1.54-5.24 1.62-1.98 4.41-1.98.86 0 1.85.17 1 .16 1.42.31l.23 2.73-.36.14-.25-2.04q-1.54-1.04-2.89-1.04-2.15 0-3.4 1.79-1.25 1.78-1.25 5.16 0 4.11 1.88 5.3.57.37 1.05.47.49.1 1.36.1.87 0 2.57-.24l.07-4.37q0-.23-.23-.27l-1.36-.09q-.02-.12-.02-.29m9.19-7.43-1-.11.01-.29h2.61l7.39 12.77-.1-12.1q-.07-.19-.21-.21l-1.74-.15q-.02-.12-.02-.29l3.61-.02q0 .02.02.29l-1.22.13v12.88h-1.39l-7.39-12.76.1 12.36 2.16.12q0 .02-.02.28l-3.81.02.01-.26.99-.14q.19-.02.23-.24v-12.03q-.04-.23-.23-.25m19.23 12.9-3.82.02.02-.26.99-.14q.19-.02.23-.24h.02v-12.01h-.02q-.04-.25-.23-.27l-.99-.09-.02-.29 3.82-.02q0 .02.02.29l-1.29.11v12.54l1.29.08q0 .02-.02.28m5.87-12.9-1.01-.11.02-.29h2.61l7.39 12.77-.1-12.1q-.07-.19-.21-.21l-1.74-.15q-.02-.12-.02-.29l3.61-.02q0 .02.02.29l-1.22.13v12.88h-1.39l-7.39-12.76.1 12.36 2.16.12q0 .02-.02.28l-3.82.02.02-.26.99-.14q.19-.02.23-.24v-12.03q-.04-.23-.23-.25m21.83 7.43 3.42-.02q0 .02.02.29l-.76.09v4.71q-.32.12-1.72.3-1.39.18-2.27.18-.87 0-1.52-.12-.64-.13-1.37-.53-.72-.4-1.22-1.05-.51-.66-.85-1.8-.34-1.14-.34-2.66 0-3.36 1.54-5.24 1.61-1.98 4.41-1.98.85 0 1.85.17 1 .16 1.42.31l.22 2.73-.36.14-.24-2.04q-1.54-1.04-2.89-1.04-2.15 0-3.4 1.79-1.26 1.78-1.26 5.16 0 4.11 1.88 5.3.57.37 1.06.47.48.1 1.36.1.87 0 2.56-.24l.08-4.37q0-.23-.23-.27l-1.37-.09q-.02-.12-.02-.29m24.3-7.81 3.71-.02q0 .02.02.29l-1.09.09-4.06 8.44v4.12l1.39.08q0 .02-.02.28l-3.8.02q0-.17.02-.26l.98-.14q.19-.02.23-.24v-3.86l-4.27-8.34q-.08-.06-.16-.1l-.79-.07q-.02-.12-.02-.29l3.84-.02.01.29-1.55.13 3.93 8.08 3.55-7.79q0-.23-.17-.25l-1.73-.15q-.02-.12-.02-.29m7.81 6.67q0-3.13 1.61-5 1.6-1.86 4-1.86 5.6 0 5.6 6.86 0 3.16-1.59 4.97-1.6 1.81-4.01 1.81-5.61 0-5.61-6.78m1.29-.04q0 6.44 4.32 6.44 1.86 0 3.09-1.71 1.22-1.71 1.22-4.73 0-6.44-4.31-6.44-1.85 0-3.08 1.73-1.24 1.73-1.24 4.71m14.67-6.63 3.8-.02q0 .02.02.29l-1.29.11v7.18q0 3.31 1.16 4.39.55.54 1.12.74.57.19 1.34.19.77 0 1.4-.2.62-.21 1.21-.76 1.26-1.14 1.26-4.36v-6.87q-.04-.25-.23-.27l-1.37-.13q-.02-.12-.02-.29l3.61-.02q0 .02.02.29l-1.58.17v7.14q0 5.78-4.31 5.78-1.05 0-1.83-.22-.79-.22-1.53-.81-1.54-1.19-1.54-4.75v-6.95q-.08-.23-.23-.25l-.99-.09q-.02-.12-.02-.29m17.82.38-1-.11.02-.29h4.61q1.96 0 3.02.86 1.07.85 1.07 2.54 0 1.11-.85 2.3-.84 1.2-1.58 1.54l3.51 5.72.93.06q0 .02-.02.28l-2.07.02-3.61-5.85h-2.52v5.47l1.33.08q0 .02-.02.28l-3.82.02.02-.26.98-.14q.14-.02.21-.17v-12.16q-.05-.17-.21-.19m3.54-.11h-2.03v6.9h3.24q.99-1.13 1.33-1.99.35-.86.35-1.68 0-1.6-.74-2.41-.75-.82-2.15-.82m27-.27 3.7-.02q0 .02.02.29l-1.2.11-4.18 12.9h-1.25l-4.33-12.8q-.06-.08-.15-.1l-.99-.09q-.02-.12-.02-.29l3.8-.02q0 .02.02.29l-1.41.13 4.2 12.52 3.69-12.06.02-.17q0-.23-.17-.25l-1.73-.15q-.02-.12-.02-.29m11.83 13.28-3.81.02.01-.26.99-.14q.19-.02.23-.24h.02v-12.01h-.02q-.04-.25-.23-.27l-.99-.09-.01-.29 3.81-.02q0 .02.02.29l-1.29.11v12.54l1.29.08q0 .02-.02.28m8.54-.36q1.4 0 2.47-.82 1.06-.83 1.06-2.52 0-.76-.37-1.3t-.98-.84q-.61-.29-1.33-.51-.72-.22-1.44-.47-.73-.24-1.33-.59-.61-.34-.98-.97-.37-.62-.37-1.5 0-1.52 1.04-2.49 1.05-.96 2.8-.96 1.74 0 3.34.39l.21 2.38-.36.15-.19-1.5q-1.41-1.04-2.64-1.04-1.24 0-2.07.75-.84.75-.84 2.25 0 .87.7 1.38.71.52 1.7.8 1 .29 2 .65 1 .36 1.7 1.21.7.86.7 2.23 0 1.84-1.31 2.77-1.31.93-3.46.93-2.14 0-3.72-1.16l.02-2.01.36-.1.04 1.09q.51.72 1.4 1.26.9.54 1.85.54m13.3.36-3.82.02.02-.26.98-.14q.19-.02.23-.24h.02v-12.01h-.02q-.04-.25-.23-.27l-.98-.09-.02-.29 3.82-.02.01.29-1.29.11v12.54l1.29.08zm4.76-6.61q0-3.13 1.61-5 1.61-1.86 4-1.86 5.6 0 5.6 6.86 0 3.16-1.59 4.97-1.6 1.81-4.01 1.81-5.61 0-5.61-6.78m1.3-.04q0 6.44 4.31 6.44 1.86 0 3.09-1.71 1.22-1.71 1.22-4.73 0-6.44-4.31-6.44-1.84 0-3.08 1.73-1.23 1.73-1.23 4.71m15.58-6.25-1.01-.11.02-.29h2.6l7.39 12.77-.09-12.1q-.08-.19-.21-.21l-1.75-.15q-.02-.12-.02-.29l3.61-.02q0 .02.02.29l-1.22.13v12.88h-1.38l-7.39-12.76.09 12.36 2.17.12q0 .02-.02.28l-3.82.02.02-.26.99-.14q.19-.02.22-.24v-12.03q-.03-.23-.22-.25m27.95 12.9-3.82.02.02-.26.98-.14q.19-.02.23-.24h.02v-12.01h-.02q-.04-.25-.23-.27l-.98-.09-.02-.29 3.82-.02.01.29-1.29.11v12.54l1.29.08zm5.87-12.9-1.01-.11.02-.29h2.6l7.39 12.77-.09-12.1q-.08-.19-.21-.21l-1.75-.15q-.02-.12-.02-.29l3.61-.02q0 .02.02.29l-1.22.13v12.88h-1.38l-7.39-12.76.09 12.36 2.17.12q0 .02-.02.28l-3.82.02.02-.26.99-.14q.19-.02.22-.24v-12.03q-.03-.23-.22-.25m18.77 12.28v-12.3h-3.27l-.3 2.51-.36-.15.19-2.36h-.02l.03-.15.02-.23.04.02v-.02h8.63l.24 2.74-.38.15-.3-2.51h-3.32v12.56l1.38.08q0 .02-.02.28l-3.8.02q0-.17.02-.26l.99-.14q.19-.02.23-.24m9.38-5.99q0-3.13 1.61-5 1.61-1.86 4-1.86 5.6 0 5.6 6.86 0 3.16-1.59 4.97-1.6 1.81-4.01 1.81-5.61 0-5.61-6.78m1.3-.04q0 6.44 4.31 6.44 1.86 0 3.09-1.71 1.22-1.71 1.22-4.73 0-6.44-4.31-6.44-1.84 0-3.08 1.73-1.23 1.73-1.23 4.71m24.34-6.25-1.01-.11.02-.29h4.61q1.96 0 3.03.86 1.06.85 1.06 2.54 0 1.11-.85 2.3-.84 1.2-1.58 1.54l3.51 5.72.93.06q0 .02-.02.28l-2.07.02-3.61-5.85h-2.52v5.47l1.33.08q0 .02-.02.28l-3.82.02.02-.26.99-.14q.13-.02.2-.17v-12.16q-.05-.17-.2-.19m3.53-.11h-2.03v6.9h3.25q.98-1.13 1.33-1.99.34-.86.34-1.68 0-1.6-.74-2.41-.74-.82-2.15-.82m11.49.11-1-.11.02-.29h8.13l-.02.06.25 2.68-.38.15-.31-2.51h-5.17v6.14h4.55q.09.02.17-.05.07-.06.07-.18l.08-1.31.3-.04v3.25q-.02 0-.28.02l-.08-1.31h-4.81v6.02h5.69l.36-3.04.36.1-.29 3.32h-4.82l-3.82.02.02-.26.98-.14q.19-.02.23-.24v-12.03q-.04-.23-.23-.25m15.55 12.9-3.82.02.02-.26.98-.14q.14-.02.23-.24l4.11-12.68h1.25l4.37 12.94 1.31.08q0 .02-.02.28l-3.8.02q0-.17.02-.26l.99-.14q.15-.02.15-.22l-1.04-3.1h-5.93l-1.01 3.3 2.21.12q0 .02-.02.28m4.61-4.08-2.96-8.86-2.72 8.86zm8-9.2 3.82-.02q0 .02.02.29l-1.31.11v12.52h5.24l.38-3.04.36.1-.28 3.32h-4.41l-3.82.02.02-.26.99-.14q.19-.02.23-.24v-12.03q-.04-.23-.23-.25l-.99-.09zm16.68 13.28-3.81.02.01-.26.99-.14q.19-.02.23-.24h.02v-12.01h-.02q-.04-.25-.23-.27l-.99-.09-.01-.29 3.81-.02q0 .02.02.29l-1.29.11v12.54l1.29.08q0 .02-.02.28m8.33-.62v-12.3h-3.27l-.31 2.51-.36-.15.19-2.36h-.02l.04-.15.02-.23.04.02v-.02h8.63l.24 2.74-.38.15-.3-2.51h-3.33v12.56l1.39.08q0 .02-.02.28l-3.8.02q0-.17.02-.26l.99-.14q.19-.02.23-.24m16.87-12.66 3.7-.02q0 .02.02.29l-1.08.09-4.07 8.44v4.12l1.39.08q0 .02-.02.28l-3.8.02q0-.17.02-.26l.99-.14q.19-.02.23-.24v-3.86l-4.28-8.34q-.07-.06-.15-.1l-.8-.07q-.02-.12-.02-.29l3.84-.02q0 .02.02.29l-1.56.13 3.93 8.08 3.56-7.79q0-.23-.17-.25l-1.73-.15q-.02-.12-.02-.29"></path></svg></svg>